<svg width="20" height="20" viewBox="0 0 20 20" fill="none" xmlns="http://www.w3.org/2000/svg">
<path d="M20 0.838301L19.1742 0.0078125L16.916 2.25326L9.59496 1.40361L0 10.986L8.99492 19.9927L18.5898 10.4102L17.7485 3.07708L20 0.838301ZM17.3618 9.98152L8.99597 18.3365L1.65625 10.9871L10.0221 2.63216L15.8543 3.30904L14.6815 4.47521C14.4724 4.38226 14.2444 4.33292 14.0086 4.33292C13.5664 4.33292 13.1506 4.505 12.8377 4.81749C12.1912 5.46314 12.1905 6.51442 12.8361 7.16093C13.1492 7.4744 13.5656 7.64703 14.0086 7.64703C14.4509 7.64703 14.8667 7.47495 15.1796 7.16245C15.6832 6.65953 15.7948 5.91059 15.5145 5.29848L16.6904 4.12922L17.3618 9.98152ZM14.352 6.3338C14.2603 6.42542 14.1383 6.47589 14.0086 6.47589C13.8787 6.47589 13.7566 6.42526 13.6648 6.33337C13.4755 6.1438 13.4757 5.83548 13.6652 5.64615C13.757 5.55449 13.879 5.50405 14.0086 5.50405C14.1386 5.50405 14.2607 5.55468 14.3525 5.64658C14.5418 5.83614 14.5416 6.14446 14.352 6.3338Z" fill="#0061DF"/>
</svg>
